<svg width="15" height="14" viewBox="0 0 15 14" fill="none" xmlns="http://www.w3.org/2000/svg">
<path d="M6.14242 1.09367C6.45002 0.189974 7.72814 0.189977 8.03574 1.09367L9.01926 3.98313C9.15721 4.3884 9.53782 4.66091 9.96592 4.66091H13.0461C14.0261 4.66091 14.4213 5.92416 13.616 6.48263L11.2053 8.15456C10.8384 8.40901 10.6847 8.87584 10.8285 9.29851L11.768 12.0586C12.0788 12.9718 11.0441 13.7523 10.2514 13.2025L7.65897 11.4046C7.31622 11.1668 6.86193 11.1668 6.51918 11.4046L3.92671 13.2025C3.13404 13.7523 2.09932 12.9718 2.41015 12.0586L3.34964 9.29851C3.4935 8.87584 3.33975 8.40901 2.97287 8.15456L0.562128 6.48263C-0.243109 5.92416 0.152077 4.66091 1.13202 4.66091H4.21223C4.64033 4.66091 5.02095 4.3884 5.15889 3.98313L6.14242 1.09367Z" fill="#FFA858"/>
</svg>
